<?xml version="1.0" encoding="UTF-8" standalone="no"?>
<!DOCTYPE svg PUBLIC "-//W3C//DTD SVG 1.1//EN"
 "http://www.w3.org/Graphics/SVG/1.1/DTD/svg11.dtd">
<!-- Generated by graphviz version 2.43.0 (0)
 -->
<!-- Title: %3 Pages: 1 -->
<svg width="1962pt" height="260pt"
 viewBox="0.00 0.00 1961.98 260.00" xmlns="http://www.w3.org/2000/svg" xmlns:xlink="http://www.w3.org/1999/xlink">
<g id="graph0" class="graph" transform="scale(1 1) rotate(0) translate(4 256)">
<title>%3</title>
<polygon fill="white" stroke="transparent" points="-4,4 -4,-256 1957.98,-256 1957.98,4 -4,4"/>
<!-- [root] local_file.pet (expand) -->
<g id="node1" class="node">
<title>[root] local_file.pet (expand)</title>
<polygon fill="none" stroke="black" points="837.98,-108 731.98,-108 731.98,-72 837.98,-72 837.98,-108"/>
<text text-anchor="middle" x="784.98" y="-86.3" font-family="Times,serif" font-size="14.00">local_file.pet</text>
</g>
<!-- [root] provider[&quot;registry.terraform.io/hashicorp/local&quot;] -->
<g id="node2" class="node">
<title>[root] provider[&quot;registry.terraform.io/hashicorp/local&quot;]</title>
<polygon fill="none" stroke="black" points="329.98,-36 0.02,-18 329.98,0 659.93,-18 329.98,-36"/>
<text text-anchor="middle" x="329.98" y="-14.3" font-family="Times,serif" font-size="14.00">provider[&quot;registry.terraform.io/hashicorp/local&quot;]</text>
</g>
<!-- [root] local_file.pet (expand)&#45;&gt;[root] provider[&quot;registry.terraform.io/hashicorp/local&quot;] -->
<g id="edge1" class="edge">
<title>[root] local_file.pet (expand)&#45;&gt;[root] provider[&quot;registry.terraform.io/hashicorp/local&quot;]</title>
<path fill="none" stroke="black" d="M731.89,-80.83C655.9,-69.14 515,-47.47 421.87,-33.14"/>
<polygon fill="black" stroke="black" points="422.3,-29.66 411.88,-31.6 421.23,-36.58 422.3,-29.66"/>
</g>
<!-- [root] var.content -->
<g id="node5" class="node">
<title>[root] var.content</title>
<polygon fill="none" stroke="black" points="768.48,-36 677.48,-36 677.48,0 774.48,0 774.48,-30 768.48,-36"/>
<polyline fill="none" stroke="black" points="768.48,-36 768.48,-30 "/>
<polyline fill="none" stroke="black" points="774.48,-30 768.48,-30 "/>
<text text-anchor="middle" x="725.98" y="-14.3" font-family="Times,serif" font-size="14.00">var.content</text>
</g>
<!-- [root] local_file.pet (expand)&#45;&gt;[root] var.content -->
<g id="edge2" class="edge">
<title>[root] local_file.pet (expand)&#45;&gt;[root] var.content</title>
<path fill="none" stroke="black" d="M770.39,-71.7C763.32,-63.3 754.69,-53.07 746.93,-43.86"/>
<polygon fill="black" stroke="black" points="749.51,-41.49 740.39,-36.1 744.16,-46.01 749.51,-41.49"/>
</g>
<!-- [root] var.filename -->
<g id="node6" class="node">
<title>[root] var.filename</title>
<polygon fill="none" stroke="black" points="890.98,-36 792.98,-36 792.98,0 896.98,0 896.98,-30 890.98,-36"/>
<polyline fill="none" stroke="black" points="890.98,-36 890.98,-30 "/>
<polyline fill="none" stroke="black" points="896.98,-30 890.98,-30 "/>
<text text-anchor="middle" x="844.98" y="-14.3" font-family="Times,serif" font-size="14.00">var.filename</text>
</g>
<!-- [root] local_file.pet (expand)&#45;&gt;[root] var.filename -->
<g id="edge3" class="edge">
<title>[root] local_file.pet (expand)&#45;&gt;[root] var.filename</title>
<path fill="none" stroke="black" d="M799.81,-71.7C807,-63.3 815.77,-53.07 823.67,-43.86"/>
<polygon fill="black" stroke="black" points="826.47,-45.97 830.32,-36.1 821.15,-41.42 826.47,-45.97"/>
</g>
<!-- [root] provider[&quot;registry.terraform.io/hashicorp/random&quot;] -->
<g id="node3" class="node">
<title>[root] provider[&quot;registry.terraform.io/hashicorp/random&quot;]</title>
<polygon fill="none" stroke="black" points="1264.98,-36 914.58,-18 1264.98,0 1615.38,-18 1264.98,-36"/>
<text text-anchor="middle" x="1264.98" y="-14.3" font-family="Times,serif" font-size="14.00">provider[&quot;registry.terraform.io/hashicorp/random&quot;]</text>
</g>
<!-- [root] random_pet.my&#45;pet (expand) -->
<g id="node4" class="node">
<title>[root] random_pet.my&#45;pet (expand)</title>
<polygon fill="none" stroke="black" points="1755.48,-108 1600.48,-108 1600.48,-72 1755.48,-72 1755.48,-108"/>
<text text-anchor="middle" x="1677.98" y="-86.3" font-family="Times,serif" font-size="14.00">random_pet.my&#45;pet</text>
</g>
<!-- [root] random_pet.my&#45;pet (expand)&#45;&gt;[root] provider[&quot;registry.terraform.io/hashicorp/random&quot;] -->
<g id="edge6" class="edge">
<title>[root] random_pet.my&#45;pet (expand)&#45;&gt;[root] provider[&quot;registry.terraform.io/hashicorp/random&quot;]</title>
<path fill="none" stroke="black" d="M1600.3,-75.83C1529.66,-63.86 1425.55,-46.22 1352.11,-33.77"/>
<polygon fill="black" stroke="black" points="1352.41,-30.27 1341.96,-32.05 1351.24,-37.17 1352.41,-30.27"/>
</g>
<!-- [root] var.length -->
<g id="node7" class="node">
<title>[root] var.length</title>
<polygon fill="none" stroke="black" points="1716.48,-36 1633.48,-36 1633.48,0 1722.48,0 1722.48,-30 1716.48,-36"/>
<polyline fill="none" stroke="black" points="1716.48,-36 1716.48,-30 "/>
<polyline fill="none" stroke="black" points="1722.48,-30 1716.48,-30 "/>
<text text-anchor="middle" x="1677.98" y="-14.3" font-family="Times,serif" font-size="14.00">var.length</text>
</g>
<!-- [root] random_pet.my&#45;pet (expand)&#45;&gt;[root] var.length -->
<g id="edge7" class="edge">
<title>[root] random_pet.my&#45;pet (expand)&#45;&gt;[root] var.length</title>
<path fill="none" stroke="black" d="M1677.98,-71.7C1677.98,-63.98 1677.98,-54.71 1677.98,-46.11"/>
<polygon fill="black" stroke="black" points="1681.48,-46.1 1677.98,-36.1 1674.48,-46.1 1681.48,-46.1"/>
</g>
<!-- [root] var.prefix -->
<g id="node8" class="node">
<title>[root] var.prefix</title>
<polygon fill="none" stroke="black" points="1817.98,-36 1739.98,-36 1739.98,0 1823.98,0 1823.98,-30 1817.98,-36"/>
<polyline fill="none" stroke="black" points="1817.98,-36 1817.98,-30 "/>
<polyline fill="none" stroke="black" points="1823.98,-30 1817.98,-30 "/>
<text text-anchor="middle" x="1781.98" y="-14.3" font-family="Times,serif" font-size="14.00">var.prefix</text>
</g>
<!-- [root] random_pet.my&#45;pet (expand)&#45;&gt;[root] var.prefix -->
<g id="edge8" class="edge">
<title>[root] random_pet.my&#45;pet (expand)&#45;&gt;[root] var.prefix</title>
<path fill="none" stroke="black" d="M1703.42,-71.88C1716.76,-62.89 1733.3,-51.76 1747.76,-42.03"/>
<polygon fill="black" stroke="black" points="1750.1,-44.68 1756.44,-36.19 1746.19,-38.87 1750.1,-44.68"/>
</g>
<!-- [root] var.separator -->
<g id="node9" class="node">
<title>[root] var.separator</title>
<polygon fill="none" stroke="black" points="1947.98,-36 1841.98,-36 1841.98,0 1953.98,0 1953.98,-30 1947.98,-36"/>
<polyline fill="none" stroke="black" points="1947.98,-36 1947.98,-30 "/>
<polyline fill="none" stroke="black" points="1953.98,-30 1947.98,-30 "/>
<text text-anchor="middle" x="1897.98" y="-14.3" font-family="Times,serif" font-size="14.00">var.separator</text>
</g>
<!-- [root] random_pet.my&#45;pet (expand)&#45;&gt;[root] var.separator -->
<g id="edge9" class="edge">
<title>[root] random_pet.my&#45;pet (expand)&#45;&gt;[root] var.separator</title>
<path fill="none" stroke="black" d="M1731.51,-71.97C1762.52,-62.1 1801.74,-49.62 1834.32,-39.25"/>
<polygon fill="black" stroke="black" points="1835.73,-42.48 1844.2,-36.11 1833.61,-35.81 1835.73,-42.48"/>
</g>
<!-- [root] provider[&quot;registry.terraform.io/hashicorp/local&quot;] (close) -->
<g id="node10" class="node">
<title>[root] provider[&quot;registry.terraform.io/hashicorp/local&quot;] (close)</title>
<ellipse fill="none" stroke="black" cx="852.98" cy="-162" rx="295.95" ry="18"/>
<text text-anchor="middle" x="852.98" y="-158.3" font-family="Times,serif" font-size="14.00">[root] provider[&quot;registry.terraform.io/hashicorp/local&quot;] (close)</text>
</g>
<!-- [root] provider[&quot;registry.terraform.io/hashicorp/local&quot;] (close)&#45;&gt;[root] local_file.pet (expand) -->
<g id="edge4" class="edge">
<title>[root] provider[&quot;registry.terraform.io/hashicorp/local&quot;] (close)&#45;&gt;[root] local_file.pet (expand)</title>
<path fill="none" stroke="black" d="M836.17,-143.7C827.85,-135.14 817.67,-124.66 808.59,-115.3"/>
<polygon fill="black" stroke="black" points="811.07,-112.84 801.59,-108.1 806.05,-117.72 811.07,-112.84"/>
</g>
<!-- [root] provider[&quot;registry.terraform.io/hashicorp/random&quot;] (close) -->
<g id="node11" class="node">
<title>[root] provider[&quot;registry.terraform.io/hashicorp/random&quot;] (close)</title>
<ellipse fill="none" stroke="black" cx="1610.98" cy="-162" rx="309.25" ry="18"/>
<text text-anchor="middle" x="1610.98" y="-158.3" font-family="Times,serif" font-size="14.00">[root] provider[&quot;registry.terraform.io/hashicorp/random&quot;] (close)</text>
</g>
<!-- [root] provider[&quot;registry.terraform.io/hashicorp/random&quot;] (close)&#45;&gt;[root] random_pet.my&#45;pet (expand) -->
<g id="edge5" class="edge">
<title>[root] provider[&quot;registry.terraform.io/hashicorp/random&quot;] (close)&#45;&gt;[root] random_pet.my&#45;pet (expand)</title>
<path fill="none" stroke="black" d="M1627.54,-143.7C1635.65,-135.22 1645.57,-124.86 1654.45,-115.58"/>
<polygon fill="black" stroke="black" points="1657.22,-117.75 1661.61,-108.1 1652.16,-112.91 1657.22,-117.75"/>
</g>
<!-- [root] root -->
<g id="node12" class="node">
<title>[root] root</title>
<ellipse fill="none" stroke="black" cx="1163.98" cy="-234" rx="58.49" ry="18"/>
<text text-anchor="middle" x="1163.98" y="-230.3" font-family="Times,serif" font-size="14.00">[root] root</text>
</g>
<!-- [root] root&#45;&gt;[root] provider[&quot;registry.terraform.io/hashicorp/local&quot;] (close) -->
<g id="edge10" class="edge">
<title>[root] root&#45;&gt;[root] provider[&quot;registry.terraform.io/hashicorp/local&quot;] (close)</title>
<path fill="none" stroke="black" d="M1118.09,-222.67C1070.33,-211.92 994.51,-194.86 936.16,-181.72"/>
<polygon fill="black" stroke="black" points="936.74,-178.27 926.22,-179.49 935.21,-185.1 936.74,-178.27"/>
</g>
<!-- [root] root&#45;&gt;[root] provider[&quot;registry.terraform.io/hashicorp/random&quot;] (close) -->
<g id="edge11" class="edge">
<title>[root] root&#45;&gt;[root] provider[&quot;registry.terraform.io/hashicorp/random&quot;] (close)</title>
<path fill="none" stroke="black" d="M1214.82,-225.04C1283.41,-214.3 1407.48,-194.87 1498.55,-180.61"/>
<polygon fill="black" stroke="black" points="1499.32,-184.03 1508.65,-179.02 1498.23,-177.11 1499.32,-184.03"/>
</g>
</g>
</svg>
